G75*
%MOIN*%
%OFA0B0*%
%FSLAX24Y24*%
%IPPOS*%
%LPD*%
%AMOC8*
5,1,8,0,0,1.08239X$1,22.5*
%
%ADD10C,0.0050*%
%ADD11C,0.0020*%
%ADD12C,0.0030*%
%ADD13C,0.0080*%
%ADD14C,0.0010*%
D10*
X015213Y001413D02*
X018213Y001413D01*
X018213Y002413D02*
X015213Y002413D01*
D11*
X016023Y002138D02*
X016243Y002138D01*
X016243Y002065D02*
X016243Y002212D01*
X016206Y001991D02*
X016243Y001954D01*
X016243Y001881D01*
X016206Y001844D01*
X016169Y001844D01*
X016133Y001881D01*
X016133Y001954D01*
X016096Y001991D01*
X016059Y001991D01*
X016023Y001954D01*
X016023Y001881D01*
X016059Y001844D01*
X016023Y001770D02*
X016096Y001696D01*
X016096Y001733D02*
X016096Y001623D01*
X016023Y001623D02*
X016243Y001623D01*
X016243Y001733D01*
X016206Y001770D01*
X016133Y001770D01*
X016096Y001733D01*
X017023Y001733D02*
X017023Y001660D01*
X017059Y001623D01*
X017133Y001660D02*
X017133Y001733D01*
X017096Y001770D01*
X017059Y001770D01*
X017023Y001733D01*
X017059Y001844D02*
X017023Y001881D01*
X017023Y001954D01*
X017059Y001991D01*
X017023Y002065D02*
X017243Y002065D01*
X017206Y001991D02*
X017243Y001954D01*
X017243Y001881D01*
X017206Y001844D01*
X017059Y001844D01*
X017206Y001770D02*
X017243Y001733D01*
X017243Y001660D01*
X017206Y001623D01*
X017169Y001623D01*
X017133Y001660D01*
X018127Y001716D02*
X018127Y001570D01*
X018163Y001533D01*
X018237Y001533D01*
X018273Y001570D01*
X018273Y001716D01*
X018237Y001753D01*
X018163Y001753D01*
X018127Y001716D01*
X018348Y001716D02*
X018384Y001753D01*
X018458Y001753D01*
X018494Y001716D01*
X018494Y001680D01*
X018458Y001643D01*
X018384Y001643D01*
X018348Y001606D01*
X018348Y001570D01*
X018384Y001533D01*
X018458Y001533D01*
X018494Y001570D01*
X018568Y001533D02*
X018642Y001533D01*
X018605Y001533D02*
X018605Y001753D01*
X018642Y001753D02*
X018568Y001753D01*
X018716Y001753D02*
X018716Y001533D01*
X018863Y001533D02*
X018863Y001753D01*
X018789Y001680D01*
X018716Y001753D01*
X017243Y002212D02*
X017096Y002065D01*
X017133Y002102D02*
X017023Y002212D01*
D12*
X018104Y001828D02*
X018298Y001828D01*
X018201Y001828D02*
X018201Y002118D01*
X018298Y002021D01*
D13*
X006044Y002786D02*
X006044Y003415D01*
X006043Y003416D02*
X006038Y003432D01*
X006030Y003448D01*
X006020Y003462D01*
X006008Y003474D01*
X005993Y003484D01*
X005977Y003491D01*
X005960Y003495D01*
X005943Y003496D01*
X005925Y003494D01*
X005375Y003494D02*
X005355Y003496D01*
X005336Y003494D01*
X005317Y003488D01*
X005300Y003479D01*
X005284Y003467D01*
X005272Y003452D01*
X005263Y003434D01*
X005257Y003416D01*
X005256Y003415D02*
X005256Y002786D01*
X005257Y002785D02*
X005263Y002767D01*
X005272Y002749D01*
X005284Y002734D01*
X005300Y002722D01*
X005317Y002713D01*
X005336Y002707D01*
X005355Y002705D01*
X005375Y002707D01*
X005925Y002707D02*
X005943Y002705D01*
X005960Y002706D01*
X005977Y002710D01*
X005993Y002717D01*
X006008Y002727D01*
X006020Y002739D01*
X006030Y002753D01*
X006038Y002769D01*
X006043Y002785D01*
X006050Y004775D02*
X006050Y005425D01*
X006048Y005442D01*
X006044Y005459D01*
X006037Y005475D01*
X006027Y005489D01*
X006014Y005502D01*
X006000Y005512D01*
X005984Y005519D01*
X005967Y005523D01*
X005950Y005525D01*
X005350Y005525D02*
X005333Y005523D01*
X005316Y005519D01*
X005300Y005512D01*
X005286Y005502D01*
X005273Y005489D01*
X005263Y005475D01*
X005256Y005459D01*
X005252Y005442D01*
X005250Y005425D01*
X005250Y004775D01*
X005252Y004758D01*
X005256Y004741D01*
X005263Y004725D01*
X005273Y004711D01*
X005286Y004698D01*
X005300Y004688D01*
X005316Y004681D01*
X005333Y004677D01*
X005350Y004675D01*
X005950Y004675D02*
X005967Y004677D01*
X005984Y004681D01*
X006000Y004688D01*
X006014Y004698D01*
X006027Y004711D01*
X006037Y004725D01*
X006044Y004741D01*
X006048Y004758D01*
X006050Y004775D01*
D14*
X006155Y002773D02*
X006180Y002748D01*
X006155Y002773D02*
X006155Y002823D01*
X006180Y002848D01*
X006205Y002848D01*
X006230Y002823D01*
X006230Y002773D01*
X006255Y002748D01*
X006280Y002748D01*
X006305Y002773D01*
X006305Y002823D01*
X006280Y002848D01*
X006305Y002945D02*
X006305Y002995D01*
X006305Y002970D02*
X006180Y002970D01*
X006155Y002945D01*
X006155Y002920D01*
X006180Y002895D01*
X006155Y003043D02*
X006155Y003143D01*
X006155Y003093D02*
X006305Y003093D01*
X006255Y003043D01*
X006255Y004730D02*
X006230Y004756D01*
X006230Y004806D01*
X006205Y004831D01*
X006180Y004831D01*
X006155Y004806D01*
X006155Y004756D01*
X006180Y004730D01*
X006255Y004730D02*
X006280Y004730D01*
X006305Y004756D01*
X006305Y004806D01*
X006280Y004831D01*
X006305Y004928D02*
X006305Y004978D01*
X006305Y004953D02*
X006180Y004953D01*
X006155Y004928D01*
X006155Y004903D01*
X006180Y004878D01*
X006155Y005025D02*
X006255Y005125D01*
X006280Y005125D01*
X006305Y005100D01*
X006305Y005050D01*
X006280Y005025D01*
X006155Y005025D02*
X006155Y005125D01*
M02*
