G75*
%MOIN*%
%OFA0B0*%
%FSLAX24Y24*%
%IPPOS*%
%LPD*%
%AMOC8*
5,1,8,0,0,1.08239X$1,22.5*
%
%ADD10C,0.0000*%
D10*
X000150Y001225D02*
X000150Y007475D01*
X023900Y007475D01*
X023900Y001225D01*
X000150Y001225D01*
X001122Y005734D02*
X001124Y005759D01*
X001130Y005784D01*
X001139Y005808D01*
X001152Y005830D01*
X001169Y005850D01*
X001188Y005867D01*
X001209Y005881D01*
X001233Y005891D01*
X001257Y005898D01*
X001283Y005901D01*
X001308Y005900D01*
X001333Y005895D01*
X001357Y005886D01*
X001380Y005874D01*
X001400Y005859D01*
X001418Y005840D01*
X001433Y005819D01*
X001444Y005796D01*
X001452Y005772D01*
X001456Y005747D01*
X001456Y005721D01*
X001452Y005696D01*
X001444Y005672D01*
X001433Y005649D01*
X001418Y005628D01*
X001400Y005609D01*
X001380Y005594D01*
X001357Y005582D01*
X001333Y005573D01*
X001308Y005568D01*
X001283Y005567D01*
X001257Y005570D01*
X001233Y005577D01*
X001209Y005587D01*
X001188Y005601D01*
X001169Y005618D01*
X001152Y005638D01*
X001139Y005660D01*
X001130Y005684D01*
X001124Y005709D01*
X001122Y005734D01*
X002719Y005734D02*
X002721Y005759D01*
X002727Y005784D01*
X002736Y005808D01*
X002749Y005830D01*
X002766Y005850D01*
X002785Y005867D01*
X002806Y005881D01*
X002830Y005891D01*
X002854Y005898D01*
X002880Y005901D01*
X002905Y005900D01*
X002930Y005895D01*
X002954Y005886D01*
X002977Y005874D01*
X002997Y005859D01*
X003015Y005840D01*
X003030Y005819D01*
X003041Y005796D01*
X003049Y005772D01*
X003053Y005747D01*
X003053Y005721D01*
X003049Y005696D01*
X003041Y005672D01*
X003030Y005649D01*
X003015Y005628D01*
X002997Y005609D01*
X002977Y005594D01*
X002954Y005582D01*
X002930Y005573D01*
X002905Y005568D01*
X002880Y005567D01*
X002854Y005570D01*
X002830Y005577D01*
X002806Y005587D01*
X002785Y005601D01*
X002766Y005618D01*
X002749Y005638D01*
X002736Y005660D01*
X002727Y005684D01*
X002721Y005709D01*
X002719Y005734D01*
M02*
