%
M48
M72
T01C0.0197
T02C0.0276
T03C0.0335
T04C0.0400
%
T01
X6963Y2975
X8338Y3225
X5650Y4100
X2650Y3288
X2900Y5268
X833Y5350
X6963Y5413
X8338Y5288
X10400Y4413
X11650Y3288
X13838Y4913
X17150Y5100
X19775Y5413
X20963Y6288
X18900Y6475
X18588Y6475
X15338Y6975
X14650Y6663
X13838Y6663
X11963Y6288
X10963Y6975
X20088Y3225
X18775Y2725
X18275Y2413
T02
X4088Y3413
X4088Y5288
T03
X2886Y5734
X1289Y5734
T04
X838Y1975
X838Y2975
X14650Y2850
X14650Y3850
X14650Y4850
X14650Y5850
X23150Y5850
X23150Y4850
X23150Y3850
X23150Y2850
X23150Y1850
X23150Y6850
M30
