G75*
%MOIN*%
%OFA0B0*%
%FSLAX24Y24*%
%IPPOS*%
%LPD*%
%AMOC8*
5,1,8,0,0,1.08239X$1,22.5*
%
%ADD10R,0.0098X0.0394*%
%ADD11R,0.0630X0.0512*%
%ADD12R,0.0591X0.0512*%
%ADD13R,0.0394X0.1063*%
%ADD14R,0.0551X0.0394*%
%ADD15R,0.0394X0.0551*%
%ADD16R,0.0236X0.0630*%
%ADD17R,0.0472X0.0217*%
%ADD18R,0.0472X0.0472*%
%ADD19R,0.0500X0.1000*%
%ADD20R,0.0600X0.0900*%
%ADD21R,0.0709X0.0591*%
%ADD22R,0.0157X0.0551*%
D10*
X005444Y003519D03*
X005641Y003519D03*
X005838Y003519D03*
X006034Y003519D03*
X006231Y003519D03*
X006231Y005182D03*
X006034Y005182D03*
X005838Y005182D03*
X005641Y005182D03*
X005444Y005182D03*
D11*
X004588Y005914D03*
X004588Y006662D03*
X007150Y006662D03*
X008025Y006662D03*
X008900Y006662D03*
X009838Y006662D03*
X009838Y005914D03*
X008900Y005914D03*
X008025Y005914D03*
X007150Y005914D03*
X012088Y004725D03*
X012088Y003976D03*
X012088Y002787D03*
X012963Y002787D03*
X012963Y002039D03*
X012088Y002039D03*
X009775Y002039D03*
X008900Y002039D03*
X008900Y002787D03*
X009775Y002787D03*
X004525Y002787D03*
X002775Y002787D03*
X001963Y002787D03*
X001963Y002039D03*
X002775Y002039D03*
X004525Y002039D03*
X016025Y003289D03*
X016963Y003289D03*
X016963Y004037D03*
X016025Y004037D03*
X016025Y005914D03*
X017025Y005914D03*
X017025Y006662D03*
X016025Y006662D03*
D12*
X020275Y006725D03*
X020275Y005976D03*
X020275Y004725D03*
X020275Y003976D03*
X020275Y002725D03*
X020275Y001976D03*
X009775Y003976D03*
X008900Y003976D03*
X008025Y003976D03*
X007150Y003976D03*
X007150Y004725D03*
X008025Y004725D03*
X008900Y004725D03*
X009775Y004725D03*
X006275Y005914D03*
X005400Y005914D03*
X005400Y006662D03*
X006275Y006662D03*
X004525Y004725D03*
X003650Y004725D03*
X003650Y003976D03*
X004525Y003976D03*
X000833Y003976D03*
X000833Y004725D03*
D13*
X005365Y002413D03*
X006310Y002413D03*
D14*
X007092Y002413D03*
X007958Y002039D03*
X007958Y002787D03*
X011521Y005914D03*
X010654Y006288D03*
X011521Y006662D03*
X012467Y006662D03*
X013333Y006288D03*
X012467Y005914D03*
D15*
X013275Y004784D03*
X012901Y003917D03*
X013649Y003917D03*
X011274Y003917D03*
X010526Y003917D03*
X010900Y004784D03*
X010526Y002846D03*
X011274Y002846D03*
X010900Y001980D03*
D16*
X017900Y003306D03*
X018400Y003306D03*
X018900Y003306D03*
X019400Y003306D03*
X019400Y005395D03*
X018904Y005395D03*
X018404Y005395D03*
X017904Y005395D03*
D17*
X002662Y004725D03*
X002662Y004350D03*
X002662Y003976D03*
X001638Y003976D03*
X001638Y004725D03*
D18*
X003650Y002000D03*
X003650Y002826D03*
D19*
X015713Y001913D03*
X016713Y001913D03*
X017713Y001913D03*
D20*
X021588Y003050D03*
X021588Y005650D03*
D21*
X003538Y006600D03*
X000637Y006600D03*
D22*
X001576Y005538D03*
X001832Y005538D03*
X002088Y005538D03*
X002343Y005538D03*
X002599Y005538D03*
M02*
